<svg width="40" height="40" viewBox="0 0 40 40" fill="none" xmlns="http://www.w3.org/2000/svg">
<g id="click">
<path id="Path (Stroke)" fill-rule="evenodd" clip-rule="evenodd" d="M3.75 20C3.75 19.3096 4.30964 18.75 5 18.75H10C10.6904 18.75 11.25 19.3096 11.25 20C11.25 20.6904 10.6904 21.25 10 21.25H5C4.30964 21.25 3.75 20.6904 3.75 20Z" fill="#ED1C24"/>
<path id="Path (Stroke)_2" fill-rule="evenodd" clip-rule="evenodd" d="M20 3.75C20.6904 3.75 21.25 4.30964 21.25 5V10C21.25 10.6904 20.6904 11.25 20 11.25C19.3096 11.25 18.75 10.6904 18.75 10V5C18.75 4.30964 19.3096 3.75 20 3.75Z" fill="#ED1C24"/>
<path id="Path (Stroke)_3" fill-rule="evenodd" clip-rule="evenodd" d="M8.44961 8.44961C8.93777 7.96146 9.72922 7.96146 10.2174 8.44961L13.884 12.1163C14.3722 12.6044 14.3722 13.3959 13.884 13.884C13.3959 14.3722 12.6044 14.3722 12.1163 13.884L8.44961 10.2174C7.96146 9.72922 7.96146 8.93777 8.44961 8.44961Z" fill="#ED1C24"/>
<path id="Path (Stroke)_4" fill-rule="evenodd" clip-rule="evenodd" d="M31.5506 8.44961C32.0387 8.93777 32.0387 9.72922 31.5506 10.2174L27.8839 13.884C27.3957 14.3722 26.6043 14.3722 26.1161 13.884C25.628 13.3959 25.628 12.6044 26.1161 12.1163L29.7828 8.44961C30.2709 7.96146 31.0624 7.96146 31.5506 8.44961Z" fill="#ED1C24"/>
<path id="Path (Stroke)_5" fill-rule="evenodd" clip-rule="evenodd" d="M13.884 26.1161C14.3722 26.6043 14.3722 27.3957 13.884 27.8839L10.2174 31.5505C9.72922 32.0387 8.93777 32.0387 8.44961 31.5505C7.96146 31.0624 7.96146 30.2709 8.44961 29.7828L12.1163 26.1161C12.6044 25.628 13.3959 25.628 13.884 26.1161Z" fill="#ED1C24"/>
<path id="Path (Stroke)_6" fill-rule="evenodd" clip-rule="evenodd" d="M20.4071 18.818C20.2775 18.7732 20.1399 18.7495 19.9999 18.7495C19.8417 18.7495 19.6867 18.7797 19.5427 18.8364C19.378 18.901 19.2341 18.9972 19.1158 19.1158C18.9972 19.2341 18.901 19.378 18.8364 19.5427C18.7797 19.6867 18.7495 19.8417 18.7495 19.9999C18.7495 20.1399 18.7732 20.2775 18.818 20.4071L23.814 35.3951C23.9739 35.8748 24.4069 36.2109 24.9112 36.2467C25.4155 36.2825 25.8918 36.0111 26.1179 35.5589L29.2649 29.2649L35.5589 26.1179C36.0111 25.8918 36.2825 25.4155 36.2467 24.9112C36.2109 24.4069 35.8748 23.9739 35.3951 23.814L20.4071 18.818ZM21.9763 21.9763L25.2314 31.7417L27.2152 27.7742C27.3361 27.5323 27.5323 27.3361 27.7742 27.2152L31.7417 25.2314L21.9763 21.9763Z" fill="#ED1C24"/>
</g>
</svg>
