<svg width="40" height="40" viewBox="0 0 40 40" fill="none" xmlns="http://www.w3.org/2000/svg">
<g id="mailbox">
<path id="Path (Stroke)" fill-rule="evenodd" clip-rule="evenodd" d="M10.8333 17.0835C10.8331 17.0835 10.8335 17.0835 10.8333 17.0835H28.3333C32.7056 17.0835 36.25 20.6279 36.25 25.0002V35.0002C36.25 35.6905 35.6904 36.2502 35 36.2502H5C4.30964 36.2502 3.75 35.6905 3.75 35.0002V24.1668C3.75 20.255 6.92157 17.0838 10.8333 17.0835ZM17.9167 33.7502H33.75V25.0002C33.75 22.0086 31.3249 19.5835 28.3333 19.5835H16.2341C17.2836 20.8189 17.9167 22.4189 17.9167 24.1668V33.7502ZM15.4167 33.7502H6.25V24.1668C6.25 21.6355 8.30203 19.5835 10.8333 19.5835C13.3646 19.5835 15.4167 21.6355 15.4167 24.1668V33.7502Z" fill="#ED1C24"/>
<path id="Path (Stroke)_2" fill-rule="evenodd" clip-rule="evenodd" d="M18.75 5C18.75 4.30964 19.3096 3.75 20 3.75H26.6667C26.9982 3.75 27.3161 3.8817 27.5506 4.11612L30.8839 7.44945C31.372 7.93761 31.372 8.72906 30.8839 9.21722L27.5506 12.5506C27.3161 12.785 26.9982 12.9167 26.6667 12.9167H21.25V18.3333C21.25 19.0237 20.6904 19.5833 20 19.5833C19.3096 19.5833 18.75 19.0237 18.75 18.3333V5ZM21.25 10.4167H26.1489L28.2322 8.33333L26.1489 6.25H21.25V10.4167Z" fill="#ED1C24"/>
<path id="Path (Stroke)_3" fill-rule="evenodd" clip-rule="evenodd" d="M8.75 25C8.75 24.3096 9.30964 23.75 10 23.75H11.6667C12.357 23.75 12.9167 24.3096 12.9167 25C12.9167 25.6904 12.357 26.25 11.6667 26.25H10C9.30964 26.25 8.75 25.6904 8.75 25Z" fill="#ED1C24"/>
</g>
</svg>
