<svg width="40" height="40" viewBox="0 0 40 40" fill="none" xmlns="http://www.w3.org/2000/svg">
<g id="wallet">
<path id="Shape (Stroke)" fill-rule="evenodd" clip-rule="evenodd" d="M5.4165 9.99984C5.4165 7.46853 7.46853 5.4165 9.99984 5.4165H26.6665C28.2773 5.4165 29.5832 6.72234 29.5832 8.33317V12.0832H29.9998C31.6107 12.0832 32.9165 13.389 32.9165 14.9998V19.9998C32.9165 20.6902 32.3569 21.2498 31.6665 21.2498C30.9762 21.2498 30.4165 20.6902 30.4165 19.9998V14.9998C30.4165 14.7697 30.23 14.5832 29.9998 14.5832H9.99984C9.24965 14.5832 8.54156 14.4029 7.9165 14.0834V29.9998C7.9165 31.1504 8.84924 32.0832 9.99984 32.0832H29.9998C30.23 32.0832 30.4165 31.8966 30.4165 31.6665V26.6665C30.4165 25.9761 30.9762 25.4165 31.6665 25.4165C32.3569 25.4165 32.9165 25.9761 32.9165 26.6665V31.6665C32.9165 33.2773 31.6107 34.5832 29.9998 34.5832H9.99984C7.46853 34.5832 5.4165 32.5311 5.4165 29.9998V9.99984ZM7.9165 9.99984C7.9165 11.1504 8.84924 12.0832 9.99984 12.0832H27.0832V8.33317C27.0832 8.10305 26.8966 7.9165 26.6665 7.9165H9.99984C8.84924 7.9165 7.9165 8.84924 7.9165 9.99984Z" fill="#ED1C24"/>
<path id="Path (Stroke)" fill-rule="evenodd" clip-rule="evenodd" d="M26.6668 21.25C25.5162 21.25 24.5835 22.1827 24.5835 23.3333C24.5835 24.4839 25.5162 25.4167 26.6668 25.4167H32.0835V21.25H26.6668ZM33.3335 18.75H26.6668C24.1355 18.75 22.0835 20.802 22.0835 23.3333C22.0835 25.8646 24.1355 27.9167 26.6668 27.9167H33.3335C34.0239 27.9167 34.5835 27.357 34.5835 26.6667V20C34.5835 19.3096 34.0239 18.75 33.3335 18.75Z" fill="#ED1C24"/>
</g>
</svg>
