<svg width="40" height="40" viewBox="0 0 40 40" fill="none" xmlns="http://www.w3.org/2000/svg">
<g id="mail">
<path id="Rectangle (Stroke)" fill-rule="evenodd" clip-rule="evenodd" d="M3.75 11.6668C3.75 9.13552 5.80203 7.0835 8.33333 7.0835H31.6667C34.198 7.0835 36.25 9.13552 36.25 11.6668V28.3335C36.25 30.8648 34.198 32.9168 31.6667 32.9168H8.33333C5.80203 32.9168 3.75 30.8648 3.75 28.3335V11.6668ZM8.33333 9.5835C7.18274 9.5835 6.25 10.5162 6.25 11.6668V28.3335C6.25 29.4841 7.18274 30.4168 8.33333 30.4168H31.6667C32.8173 30.4168 33.75 29.4841 33.75 28.3335V11.6668C33.75 10.5162 32.8173 9.5835 31.6667 9.5835H8.33333Z" fill="#ED1C24"/>
<path id="Path (Stroke)" fill-rule="evenodd" clip-rule="evenodd" d="M3.96007 10.9733C4.34301 10.3989 5.1191 10.2436 5.69351 10.6266L20.0001 20.1643L34.3068 10.6266C34.8812 10.2436 35.6573 10.3989 36.0402 10.9733C36.4231 11.5477 36.2679 12.3238 35.6935 12.7067L20.6935 22.7067C20.2736 22.9866 19.7266 22.9866 19.3068 22.7067L4.30676 12.7067C3.73235 12.3238 3.57713 11.5477 3.96007 10.9733Z" fill="#ED1C24"/>
</g>
</svg>
