<svg width="40" height="40" viewBox="0 0 40 40" fill="none" xmlns="http://www.w3.org/2000/svg">
<g id="truck-delivery">
<path id="Oval (Stroke)" fill-rule="evenodd" clip-rule="evenodd" d="M11.6668 26.25C10.5162 26.25 9.5835 27.1827 9.5835 28.3333C9.5835 29.4839 10.5162 30.4167 11.6668 30.4167C12.8174 30.4167 13.7502 29.4839 13.7502 28.3333C13.7502 27.1827 12.8174 26.25 11.6668 26.25ZM7.0835 28.3333C7.0835 25.802 9.13552 23.75 11.6668 23.75C14.1981 23.75 16.2502 25.802 16.2502 28.3333C16.2502 30.8646 14.1981 32.9167 11.6668 32.9167C9.13552 32.9167 7.0835 30.8646 7.0835 28.3333Z" fill="#ED1C24"/>
<path id="Oval (Stroke)_2" fill-rule="evenodd" clip-rule="evenodd" d="M28.3333 26.25C27.1827 26.25 26.25 27.1827 26.25 28.3333C26.25 29.4839 27.1827 30.4167 28.3333 30.4167C29.4839 30.4167 30.4167 29.4839 30.4167 28.3333C30.4167 27.1827 29.4839 26.25 28.3333 26.25ZM23.75 28.3333C23.75 25.802 25.802 23.75 28.3333 23.75C30.8646 23.75 32.9167 25.802 32.9167 28.3333C32.9167 30.8646 30.8646 32.9167 28.3333 32.9167C25.802 32.9167 23.75 30.8646 23.75 28.3333Z" fill="#ED1C24"/>
<path id="Shape (Stroke)" fill-rule="evenodd" clip-rule="evenodd" d="M2.0835 8.3335C2.0835 7.64314 2.64314 7.0835 3.3335 7.0835H21.6668C22.3572 7.0835 22.9168 7.64314 22.9168 8.3335V8.75016H30.0002C30.4392 8.75016 30.8461 8.98054 31.072 9.35704L36.0615 17.6728C36.124 17.773 36.1727 17.8827 36.205 17.9992C36.2375 18.1161 36.2522 18.2356 36.2502 18.3541V28.3335C36.2502 29.0239 35.6905 29.5835 35.0002 29.5835H31.6668C30.9765 29.5835 30.4168 29.0239 30.4168 28.3335C30.4168 27.6431 30.9765 27.0835 31.6668 27.0835H33.7502V19.5835H22.9168V27.0835H25.0002C25.6905 27.0835 26.2502 27.6431 26.2502 28.3335C26.2502 29.0239 25.6905 29.5835 25.0002 29.5835H15.0002C14.3098 29.5835 13.7502 29.0239 13.7502 28.3335C13.7502 27.6431 14.3098 27.0835 15.0002 27.0835H20.4168V9.5835H3.3335C2.64314 9.5835 2.0835 9.02385 2.0835 8.3335ZM22.9168 11.2502V17.0835H32.7924L29.2924 11.2502H22.9168ZM5.00016 20.4168C5.69052 20.4168 6.25016 20.9765 6.25016 21.6668V27.0835H8.3335C9.02385 27.0835 9.5835 27.6431 9.5835 28.3335C9.5835 29.0239 9.02385 29.5835 8.3335 29.5835H5.00016C4.30981 29.5835 3.75016 29.0239 3.75016 28.3335V21.6668C3.75016 20.9765 4.30981 20.4168 5.00016 20.4168Z" fill="#ED1C24"/>
<path id="Path (Stroke)" fill-rule="evenodd" clip-rule="evenodd" d="M3.75 15C3.75 14.3096 4.30964 13.75 5 13.75H11.6667C12.357 13.75 12.9167 14.3096 12.9167 15C12.9167 15.6904 12.357 16.25 11.6667 16.25H5C4.30964 16.25 3.75 15.6904 3.75 15Z" fill="#ED1C24"/>
</g>
</svg>
