<svg width="40" height="40" viewBox="0 0 40 40" fill="none" xmlns="http://www.w3.org/2000/svg">
<g id="tool">
<path id="Path (Stroke)" fill-rule="evenodd" clip-rule="evenodd" d="M13.1132 6.34546L17.5508 10.783C17.7852 11.0174 17.9169 11.3354 17.9169 11.6669V16.6669C17.9169 17.3573 17.3573 17.9169 16.6669 17.9169H11.6669C11.4974 17.9169 11.3358 17.8832 11.1884 17.822C11.041 17.761 10.9029 17.6706 10.783 17.5508L6.34546 13.1132C5.65 16.0272 6.49092 19.1512 8.67007 21.3304C11.2921 23.9524 15.2821 24.637 18.6282 23.0389C19.1062 22.8106 19.6762 22.9084 20.0508 23.283L30.0508 33.283C30.9433 34.1756 32.3905 34.1756 33.283 33.283C34.1756 32.3905 34.1756 30.9433 33.283 30.0508L23.283 20.0508C22.9084 19.6762 22.8106 19.1062 23.0389 18.6282C24.637 15.2821 23.9524 11.2921 21.3304 8.67007C19.1512 6.49092 16.0272 5.65 13.1132 6.34546ZM12.1847 15.4169H15.4169V12.1847L9.94968 6.71745C9.66274 6.43051 9.53294 6.02214 9.60156 5.62219C9.67019 5.22224 9.92868 4.88048 10.2949 4.7056C14.597 2.65095 19.727 3.53113 23.0982 6.9023C26.2564 10.0606 27.2284 14.7626 25.6491 18.8813L35.0508 28.283C36.9196 30.1519 36.9196 33.1819 35.0508 35.0508C33.1819 36.9196 30.1519 36.9196 28.283 35.0508L18.8813 25.6491C14.7626 27.2284 10.0606 26.2564 6.9023 23.0982C3.53113 19.727 2.65095 14.597 4.7056 10.2949C4.88048 9.92868 5.22224 9.67019 5.62219 9.60156C6.02214 9.53294 6.43051 9.66274 6.71745 9.94968L12.1847 15.4169Z" fill="#ED1C24"/>
</g>
</svg>
